<svg xmlns="http://www.w3.org/2000/svg" viewBox="0 0 600 600"><g id="Layer_1" data-name="Layer 1"><path d="M253.14,404.46V371.57a12.17,12.17,0,0,1-5.52,1.55V409.2A16.8,16.8,0,0,1,253.14,404.46Z"/><path d="M250.54,308.81c.86-.33,1.73-.65,2.6-.94V166a15.39,15.39,0,0,1,7.3-13.07,11.26,11.26,0,0,0,10.38,6.95h20.35V277.67a28,28,0,0,1,10.36-2.87V256.73a4.94,4.94,0,0,1,0-8.87V160.3H306v87.56a4.94,4.94,0,0,1,0,8.87V274.8a28,28,0,0,1,10.36,2.87V159.88h20.35A11.26,11.26,0,0,0,347,152.93a15.39,15.39,0,0,1,7.3,13.07V307.87c.87.29,1.74.61,2.61.94l2.11.82q.39-.25.81-.48V166a20.93,20.93,0,0,0-12.09-18.94,11.28,11.28,0,0,0-11.12-9.67H270.82a11.28,11.28,0,0,0-11.12,9.67A20.92,20.92,0,0,0,247.62,166V309.15c.27.15.54.31.8.48ZM339.1,148.64a4.66,4.66,0,1,1-4.66-4.66A4.66,4.66,0,0,1,339.1,148.64ZM273,144a4.66,4.66,0,1,1-4.66,4.66A4.66,4.66,0,0,1,273,144Z"/><path d="M354.34,404.46a16.94,16.94,0,0,1,5.53,4.74V373.12a12.17,12.17,0,0,1-5.53-1.55Z"/><path d="M229.69,321.37a10.83,10.83,0,0,1-.09-1.7l-9.66,3.74,1.57,4.07.42,1.09,8.28-3.21Z"/><path d="M377.89,319.67a13.94,13.94,0,0,1-.09,1.7l-.53,4,8.28,3.21.42-1.09,1.58-4.07Z"/><path d="M253.4,316.36l.06,0a51.33,51.33,0,0,1,18.7-3.5h4.51V324a18.57,18.57,0,0,1,3.31-.77v-5.21a28,28,0,0,1-4.08-10.74h-3.74a57,57,0,0,0-20.7,3.87l-.82.32A12.22,12.22,0,0,1,253.4,316.36Z"/><polygon points="279.98 486.69 279.98 444.65 276.67 444.65 276.67 486.95 279.98 486.69"/><path d="M276.67,162.39V295.06a27.94,27.94,0,0,1,3.31-7.31V162.39Z"/><path d="M327.5,162.39V287.75a28.3,28.3,0,0,1,3.32,7.31V162.39Z"/><polygon points="327.5 444.65 327.5 486.76 330.81 487.02 330.81 444.65 327.5 444.65"/><path d="M327.5,318.05v5.21a18.87,18.87,0,0,1,3.32.77V312.84h4.5a51.38,51.38,0,0,1,18.71,3.5l.05,0a12.13,12.13,0,0,1,2.77-4.86l-.82-.32a57.08,57.08,0,0,0-20.71-3.87h-3.73A28.06,28.06,0,0,1,327.5,318.05Z"/><path d="M364.74,498.32a17,17,0,0,1-3.82.44h0a16.76,16.76,0,0,1-13.22-6.4L310,489.69v-49h22.25a8.19,8.19,0,0,0,1.79-.21l-1.55-6.65-26.68-5.18a17.77,17.77,0,0,1-2-.52,17.6,17.6,0,0,1-2,.52L275,433.8l-1.58,6.82a7.56,7.56,0,0,0,.83,0h22.25v49l-36.69,2.6a16.76,16.76,0,0,1-13.27,6.47,17.11,17.11,0,0,1-3.83-.44,16.75,16.75,0,0,1-7.84-4.26L207.55,496v6.49H398.94V496l-26.42-1.87A16.72,16.72,0,0,1,364.74,498.32Z"/><path d="M332.57,148.64a1.88,1.88,0,1,0,1.87-1.88A1.87,1.87,0,0,0,332.57,148.64Z"/><path d="M271.17,148.64a1.87,1.87,0,1,0,1.87-1.88A1.87,1.87,0,0,0,271.17,148.64Z"/><path d="M289.17,323.05h29.14a24.87,24.87,0,1,0-29.14,0Z"/><path d="M243.49,495.09A13.55,13.55,0,0,0,259.75,485l12.53-54,28.8-5.59a13.66,13.66,0,0,0,2.66-.8,13.66,13.66,0,0,0,2.66.8L335.2,431l12.54,54a13.54,13.54,0,1,0,26.38-6.13L359.6,416.27A13.53,13.53,0,0,0,349,406l-15.34-3V349.92c6.24,4.71,14.16,11.45,20.6,17.5a8.82,8.82,0,0,0,6.05,2.4,8.83,8.83,0,0,0,8.77-7.69l5.45-41.19A8.85,8.85,0,0,0,357,318.62l-3.26,24.71-2.46-2c-13.83-11.38-20.24-14.42-24.92-14.82a8.39,8.39,0,0,0-1.23-.1H282.38a8.5,8.5,0,0,0-1.23.1c-4.68.41-11.09,3.44-24.92,14.82-.83.68-1.65,1.36-2.45,2l-3.27-24.71A8.85,8.85,0,0,0,233,320.94l5.45,41.19a8.86,8.86,0,0,0,5.8,7.18,9,9,0,0,0,3,.51,8.81,8.81,0,0,0,6.05-2.4c6.45-6.05,14.36-12.79,20.6-17.5v53.14l-15.34,3a13.5,13.5,0,0,0-10.61,10.23l-14.53,62.56A13.55,13.55,0,0,0,243.49,495.09Z"/></g></svg>