<svg xmlns="http://www.w3.org/2000/svg" viewBox="0 0 600 600"><g id="Layer_1" data-name="Layer 1"><path d="M325.74,231.86a22.5,22.5,0,1,0-37.16,17.06h29.33A22.47,22.47,0,0,0,325.74,231.86Z"/><path d="M258.93,176.25h88.62l.18-4.37a10.67,10.67,0,0,1,.21-1.7h-89.4a10.67,10.67,0,0,1,.21,1.7Z"/><path d="M238.39,170.18H189.52V134.37A13.27,13.27,0,0,0,183.08,123V95.74H169.44V123A13.27,13.27,0,0,0,163,134.37v35.81H132v6.07h31v35.81a13.27,13.27,0,0,0,6.45,11.34V528.5H140v10.12H212.5V528.5H183.08V223.4a13.27,13.27,0,0,0,6.44-11.34V176.25h48.79l-.14-3.55A10.47,10.47,0,0,1,238.39,170.18ZM170.76,137a5.5,5.5,0,1,1,5.5,5.5A5.49,5.49,0,0,1,170.76,137Zm11,72.45a5.5,5.5,0,1,1-5.49-5.5A5.49,5.49,0,0,1,181.75,209.44Z"/><path d="M437.05,223.4a13.29,13.29,0,0,0,6.44-11.34V176.25h31v-6.07h-31V134.37A13.29,13.29,0,0,0,437.05,123V95.74H423.4V123A13.29,13.29,0,0,0,417,134.37v35.81H368.09a10.47,10.47,0,0,1,.22,2.52l-.14,3.55H417v35.81a13.29,13.29,0,0,0,6.44,11.34V528.5H394v10.12h72.49V528.5H437.05Zm-6.83-19.46a5.5,5.5,0,1,1-5.49,5.5A5.5,5.5,0,0,1,430.22,203.94ZM424.73,137a5.5,5.5,0,1,1,5.49,5.5A5.49,5.49,0,0,1,424.73,137Z"/><path d="M178.47,137a2.21,2.21,0,1,0-2.21,2.22A2.21,2.21,0,0,0,178.47,137Z"/><path d="M174.05,209.44a2.21,2.21,0,1,0,2.21-2.21A2.21,2.21,0,0,0,174.05,209.44Z"/><path d="M432.43,137a2.21,2.21,0,1,0-2.21,2.22A2.2,2.2,0,0,0,432.43,137Z"/><path d="M430.22,211.65a2.21,2.21,0,1,0-2.21-2.21A2.2,2.2,0,0,0,430.22,211.65Z"/><path d="M330.29,327.34V266l.22-.24,31.75-38.9a8,8,0,0,0,1.8-4.74L366,172.61a8,8,0,0,0-16-.64l-1.85,46.85-26.44,32.4h-37l-26.44-32.4L256.46,172a8,8,0,0,0-8-7.68h-.32a8,8,0,0,0-7.68,8.31l2,49.51a7.91,7.91,0,0,0,1.79,4.74L276,265.76l.22.24v61.34a7.46,7.46,0,0,0,.1,1.16v12.09l-.06,45a12.27,12.27,0,0,0,.71,4.12L297,446.21A12.25,12.25,0,0,0,320.1,438l-19.38-54.46.06-43.79v-4.68h4.93v2.3l.06,46.17-1.31,3.67,13,36.55,12.1-34a12.27,12.27,0,0,0,.71-4.12l-.07-51.82v-5.41A9.28,9.28,0,0,0,330.29,327.34Z"/><path d="M294.85,447,289,430.62,286.4,438a12.26,12.26,0,0,0,11.54,16.36,12.09,12.09,0,0,0,2.41-.25A14.48,14.48,0,0,1,294.85,447Z"/></g></svg>