<svg xmlns="http://www.w3.org/2000/svg" viewBox="0 0 600 600"><g id="Layer_1" data-name="Layer 1"><path d="M187.3,323.54a10.62,10.62,0,0,1,11.5,3.1c0-.07,0-.13,0-.2a8.29,8.29,0,0,0-3.25-5.22l.23-.16a3.14,3.14,0,0,1,1.45-.36,3,3,0,0,1,1.4.34l9,4.47a3.15,3.15,0,0,1,1.72,3.32l-.66,4.21a1.55,1.55,0,0,0-.47,3l-.63,4A3.14,3.14,0,0,1,205,342.7h0l-10,1.5a3.17,3.17,0,0,1-1.59-.18l-3.56,1.21c.08.09.15.18.24.27a6.12,6.12,0,0,0,5.37,1.77l10-1.5h0a6.23,6.23,0,0,0,5.25-5.22l.62-3.93L235.63,341a4.39,4.39,0,0,0,6,3.62,4.37,4.37,0,0,0,2.3-2.11l122.67,22.27v4.54a4.16,4.16,0,0,0,4.14,4.15h11.7v17.55H263.19l14.6,10.36H298l-21.23,30H244.22v10.37h248.7V431.44H466.69V195.87h11.18V175.14h-87.6l-32.62-17.47-9.78,18.27,7.12,3.82-4,7.13a8.81,8.81,0,0,0,3.38,11.94,8.57,8.57,0,0,0,2.23.86L373,353.09h-2.2a4.15,4.15,0,0,0-4.14,4.14v4.43l-122.3-22.2c-.05-.19-.09-.38-.16-.57a4.45,4.45,0,0,0-5.77-2.51,4.39,4.39,0,0,0-2,1.63l-24.57-4.46.66-4.24a6.22,6.22,0,0,0-3.41-6.58l-9-4.48a6.24,6.24,0,0,0-7.54,1.55,8.21,8.21,0,0,0-3.28-.08l-14,2.48-.19-.2c1,1.59,1.94,3.18,2.82,4.79Zm227.21,76.84V339.9h2.66l2.26-4.77h11.75l2.27,4.77h2.66v60.48Zm0-70.16v-3.89h21.6v3.89Zm0-8.8v-3.89h21.6v3.89Zm0-8.8v-3.89h21.6v3.89Zm0-8.8v-3.88h21.6v3.88Zm0-8.79v-3.89h21.6V295Zm0-8.8V195.87h21.6v90.36Zm-2.75-90.36v90.36H402.4v4.91h9.36V295H402.4v4.91h9.36v3.88H402.4v4.91h9.36v3.89H402.4v4.91h9.36v3.89H402.4v4.91h9.36v3.89H402.4v4.91h4.43l2.26,4.77h2.67v60.48H392.85V195.87ZM308.28,401.42h74.2v30H287.05Zm84.57,30V410.75h63.47v20.69Zm63.47-31.06H438.86V339.9h2.66l2.27-4.77h3v-4.91h-7.92v-3.89h7.92v-4.91h-7.92v-3.89h7.92v-4.91h-7.92v-3.89h7.92v-4.91h-7.92v-3.88h7.92V295h-7.92v-3.89h7.92v-4.91h-7.92V195.87h17.46ZM467.2,185.43a5.7,5.7,0,1,1-5.69-5.7A5.69,5.69,0,0,1,467.2,185.43Zm-79.53-5.7a5.7,5.7,0,1,1-5.7,5.7A5.7,5.7,0,0,1,387.67,179.73Zm-32.19,10.41a3.28,3.28,0,1,1,3.75,4.75L359,193a1.55,1.55,0,1,0-3.09.33l.08.74A3.27,3.27,0,0,1,355.48,190.14Zm4.28,9.71a8.73,8.73,0,0,0,6.55-4.4l4.15-7.41,12,6.45v158.6h-6.37Z"/><path d="M224.78,401.42l-9.14-6.48-49.92-4.79a15.36,15.36,0,0,1-13.25-11h-9.83a7.35,7.35,0,0,0-7.33,7.33h0a7.35,7.35,0,0,0,7.33,7.33h2a23,23,0,0,0-12,20.2v27.76H143V414.05a12.63,12.63,0,0,1,12.62-12.63Z"/><path d="M387.67,183.14a2.29,2.29,0,1,0,2.29,2.29A2.28,2.28,0,0,0,387.67,183.14Z"/><path d="M461.51,183.14a2.29,2.29,0,1,0,2.29,2.29A2.28,2.28,0,0,0,461.51,183.14Z"/><circle cx="131.7" cy="270.05" r="23.32" transform="translate(-128.32 119.51) rotate(-33.93)"/><path d="M165.94,387.78l50.56,4.84,45.89,32.57a13,13,0,0,0,15-21.14l-48.7-34.56a13,13,0,0,0-6.26-2.33l-34.75-3.33a32.58,32.58,0,0,0-.51-5.13c-1.06-4.13-2.13-7.91-3.27-11.44l-9.12,3.1a10.56,10.56,0,0,1-3.44.57,10.67,10.67,0,0,1-6.89-2.52l-29.84-25.2a10.67,10.67,0,1,1,13.77-16.31l25.24,21.3,1.87-.63a134.51,134.51,0,0,0-14.43-20.48c-10.31-12.3-24-12.2-31.47-7s-6.69,18.15-.21,26.72c7.84,12.52,20,30.15,24.15,47.64.3.95.6,1.83.91,2.64A13,13,0,0,0,165.94,387.78Z"/><path d="M173.1,330.9l-26.27-22.18a8.29,8.29,0,0,0-10.7,12.67L166,346.59a8.26,8.26,0,0,0,8,1.51l19.41-6.61a8.29,8.29,0,1,0-5.35-15.69Z"/></g></svg>