<svg xmlns="http://www.w3.org/2000/svg" viewBox="0 0 600 600"><g id="Layer_1" data-name="Layer 1"><path d="M323.52,336.53a7.76,7.76,0,0,1-.84.78l.62,3.38a4,4,0,0,0,4.65,3.23l8.56-1.55a4,4,0,0,0,3.23-4.66l-5.33-29.48a4,4,0,0,0-4.66-3.23l-8.55,1.55-.21.06,4.31,23.81A7.17,7.17,0,0,1,323.52,336.53Z"/><path d="M295.91,327.85a14,14,0,0,1-13,8.65h0a14,14,0,0,1-10.26-4.44l-.42.07,8.17,20.34a4,4,0,0,0,2.85-4.55l-1.93-10.72,21.13-3.82-1.17-6.5Z"/><path d="M316.86,256.55a14.08,14.08,0,1,1-6.69,27.36L290,279l5.7,34.23,3-.55L297.34,305a7.15,7.15,0,0,1,5.76-8.31l8.56-1.55a7.12,7.12,0,0,1,8.21,5.42l.34-.17c18.7-9.94,22.31-27.65,17.6-38.72-2-4.62-6.06-7.73-11.08-9.37a11.44,11.44,0,0,0-1.65-.56l-40.94-10a11,11,0,0,0-10,2.61,10.62,10.62,0,0,0-1.52,1.77,13.85,13.85,0,0,1,3.33.4Z"/><circle cx="378.57" cy="274.22" r="30.77" transform="translate(-80.73 187.29) rotate(-25.2)"/><path d="M227.92,441.94a17.09,17.09,0,0,0,12.86,20.47,17.37,17.37,0,0,0,3.83.43,17.09,17.09,0,0,0,16.64-13.29l18.66-81.7a17.2,17.2,0,0,0-.8-10.18l-10-25-1.63.3,1.38,7.63a7.21,7.21,0,0,1-1.78,6.11,7.06,7.06,0,0,1-4,2.2l-8.55,1.55a7.17,7.17,0,0,1-8.32-5.77l-5.33-29.48a7.2,7.2,0,0,1,1.78-6.11,7,7,0,0,1,4-2.2l8.56-1.55a7.16,7.16,0,0,1,8.31,5.77l1.38,7.62,3.08-.55-8.25-49.51a117,117,0,0,1-24.42,3.56c-19,1.88-19.47,7.6-17.66,20a44.86,44.86,0,0,0,4,14l12,29.95,11.72,29.18Z"/><path d="M296.86,324.49l7-1.26L305.76,334a4,4,0,0,0,4.66,3.23l8.55-1.54A4,4,0,0,0,322.2,331l-5.33-29.48a4,4,0,0,0-4.65-3.24l-8.56,1.55a4,4,0,0,0-3.23,4.66l1.94,10.72-6.17,1.12.63,3.79A13.77,13.77,0,0,1,296.86,324.49Z"/><path d="M269,324.73l-.57-3.41-6.13,1.11-1.94-10.72a4,4,0,0,0-4.66-3.24L247.19,310a4,4,0,0,0-3.23,4.66l5.33,29.48a4,4,0,0,0,4.66,3.23l8.55-1.54a4,4,0,0,0,3.23-4.66l-1.94-10.73,6.82-1.23A14.24,14.24,0,0,1,269,324.73Z"/><path d="M272.14,324.21a11,11,0,0,0,10.78,9.15,11.26,11.26,0,0,0,1.82-.15,11,11,0,0,0,9-12.6l-7.64-45.82,24.83,6.07a10.94,10.94,0,0,0,5.19-21.26l-40.94-10A10.94,10.94,0,0,0,261.78,262Z"/></g></svg>