<svg xmlns="http://www.w3.org/2000/svg" viewBox="0 0 600 600"><g id="Layer_1" data-name="Layer 1"><circle cx="405.8" cy="234.77" r="28.26" transform="translate(-62.91 245.01) rotate(-31.3)"/><path d="M391.29,373.7h2.91a6.81,6.81,0,0,1,6.81,6.81v22.18h-6.92v12.56H420.5V402.69h-6.93V380.51a19.39,19.39,0,0,0-19.37-19.37H387l3.87,4.43A6.58,6.58,0,0,1,391.29,373.7Z"/><path d="M190.93,414.05a18.58,18.58,0,0,1,1.82-26.14v-7.4a6.81,6.81,0,0,1,6.81-6.81h9.61l14.51-12.56H199.56a19.39,19.39,0,0,0-19.37,19.37v22.18h-6.92v12.56h18.81C191.68,414.86,191.29,414.47,190.93,414.05Z"/><path d="M249.4,338.48H199.07a8.89,8.89,0,0,0,0,17.77h30.27l19.84-17.16Z"/><path d="M373.45,297.85l22.27-14a8.9,8.9,0,0,0,2.75-12.26h0a8.91,8.91,0,0,0-12.26-2.74l-14.84,9.35Z"/><path d="M356.88,358.78a6.57,6.57,0,0,1,.62-9.27l2.69-2.36-14.36-27.44-1.75-3.34,5.11-3.23a13.52,13.52,0,0,1-.35-1.9L347,293.54l-53.85,33.94L283.67,353a2.43,2.43,0,0,0,2.33,0l47.42-29.89,1.75,3.35,18.17,34.71H279.8a18.81,18.81,0,0,1-2.7,2.94L266,373.7h104Z"/><path d="M381.45,350.57l-4.26,3.73-6.59-7.53a3.68,3.68,0,0,0-5.19-.34l-6,5.25a3.71,3.71,0,0,0-.35,5.2l18.12,20.7a3.71,3.71,0,0,0,5.2.35l6-5.26a3.7,3.7,0,0,0,.35-5.2l-6.59-7.53,4.7-4.11a12.75,12.75,0,0,1-2.46-2.07Z"/><path d="M405.57,339.43l4.67-4.09,6.59,7.53a3.69,3.69,0,0,0,5.19.35l6-5.26a3.71,3.71,0,0,0,.35-5.2l-18.12-20.7a3.7,3.7,0,0,0-5.2-.34l-6,5.25a3.7,3.7,0,0,0-.34,5.2l6.59,7.53-4.38,3.83,2.52,2.76A13,13,0,0,1,405.57,339.43Z"/><path d="M251.63,340.79,194.71,390a15.7,15.7,0,1,0,20.54,23.74l60-51.87a15.68,15.68,0,0,0,4.45-6.41l17-45.9,3,.15-4.43,11.94,9.88-6.23v-.1l.22,0,41.16-25.94L343.77,263a13,13,0,0,1,11.5-14.22c.46,0,.92-.07,1.38-.07a12.9,12.9,0,0,1,12.84,11.58L370.93,274l4.59-2.89c6.88-11.45,5.05-23.56-.51-30.52-6.89-8.63-22.45-6.7-32.32,1.78-14.55,10.44-34.93,26.48-55.77,32.83-6.13,2.38-9.82,4.59-11.79,7a15.67,15.67,0,0,0-4,6l-7.34,19.8Z"/><path d="M351.72,310.94a10.05,10.05,0,0,0,2.58,5.74l32.2,35.13a10,10,0,1,0,14.81-13.57l-30-32.7-4.73-44.92a10,10,0,1,0-20,2.1Z"/></g></svg>