<svg xmlns="http://www.w3.org/2000/svg" viewBox="0 0 600 600"><g id="Layer_1" data-name="Layer 1"><path d="M369.29,342.5c-.55-3.58-9.71-7.13-15.52-7.89A14.14,14.14,0,0,1,342.2,325l-6.69-2.53a23.94,23.94,0,0,1-3.6,11.32A20.09,20.09,0,0,1,327.46,356L345,362.62l1.43,56.91a17.1,17.1,0,0,0,17.08,16.66H364a17.09,17.09,0,0,0,16.66-17.52L379,353.76A14,14,0,0,1,369.29,342.5Z"/><path d="M355.1,257.46a14.07,14.07,0,0,1-17.77,19l-24.58-9.21,12.45,36.38a14.12,14.12,0,0,1,.67,3.09,17.37,17.37,0,0,1,6.08,4.51l10.49-12.71c1.37-1.26,2.73-2.49,4.06-3.7l-1.1,15-.74,10a11,11,0,0,0,9.52,11.66c5.31.7,17.25,4.32,18.22,10.53A10.94,10.94,0,1,0,394,338.64c-2.31-14.78-15.31-22.85-26.85-26.56l.73-9.86,2.73-37.09a10.54,10.54,0,0,0,0-1.12c.9-5.43-.05-10.7-3.44-14.63-6.85-8-21-12.46-36-5.26l16,6A14,14,0,0,1,355.1,257.46Z"/><path d="M293.24,341.65a20.26,20.26,0,0,1,1.58-7.84,23.78,23.78,0,0,1-3.63-12.21,15.42,15.42,0,0,1,6-12.7l-8.83-25.78a209.84,209.84,0,0,0-13.86,22.43C270.08,315.43,270.36,323,273,329l-36.82,44.63-68.8,30A17.09,17.09,0,1,0,181,434.94l72.55-31.61a17.25,17.25,0,0,0,6.36-4.79l37.17-45.06A20.06,20.06,0,0,1,293.24,341.65Z"/><path d="M309.07,322a14,14,0,0,1-5.61-2.5,4.42,4.42,0,0,0-.51,2.11,9.83,9.83,0,0,0,.39,2.61A20.29,20.29,0,0,1,309.07,322Z"/><path d="M322,318a14.15,14.15,0,0,1-5.53,3.52c-.17.06-.35.1-.52.15a20.1,20.1,0,0,1,7.49,2.53,9.81,9.81,0,0,0,.38-2.61A4.24,4.24,0,0,0,322,318Z"/><circle cx="402.77" cy="237.63" r="30.77" transform="translate(150.62 631.47) rotate(-87.91)"/><path d="M330.36,341.65a16.8,16.8,0,0,0-2.05-8.08,21.24,21.24,0,0,0,4.09-12,12.46,12.46,0,0,0-6.6-11.39,14.12,14.12,0,0,1-1.89,5.28,7.16,7.16,0,0,1,3,6.11,15.19,15.19,0,0,1-2.21,7.44,16.9,16.9,0,0,0-22.7,0,15.09,15.09,0,0,1-2.21-7.44,7.43,7.43,0,0,1,1.28-4.35,14,14,0,0,1-2.54-4.49l-.23-.67a12.42,12.42,0,0,0-4,9.51,21.3,21.3,0,0,0,4.08,12,17,17,0,1,0,31.94,8.08Z"/><path d="M301.52,311.74a10.94,10.94,0,1,0,20.7-7.08L307.61,262l30.82,11.56A10.94,10.94,0,1,0,346.11,253L293.6,233.35a10.94,10.94,0,0,0-14.19,13.79Z"/></g></svg>