<svg xmlns="http://www.w3.org/2000/svg" viewBox="0 0 600 600"><g id="Layer_1" data-name="Layer 1"><path d="M377.74,443.53v11.05h148.9V443.53h-28V192.25h11.93V170.14H417.15L382.36,151.5,371.92,171l7.6,4.07-4.26,7.61a9.38,9.38,0,0,0,3.6,12.73h0a9.26,9.26,0,0,0,2.24.89L398.74,400h-2.38a4.44,4.44,0,0,0-4.42,4.43v3.7l-36.11-19.24a5,5,0,0,0,0-.77,4.76,4.76,0,0,0-5-4.52,4.67,4.67,0,0,0-2.84,1.15l-21.54-11.48,2.14-4.09a6.66,6.66,0,0,0-1.19-7.82l-7.6-7.63a6.69,6.69,0,0,0-9.6.15l.87.46a11.65,11.65,0,0,1,2,1.39,3.49,3.49,0,0,1,1.47-.61,4.55,4.55,0,0,1,.52,0,3.33,3.33,0,0,1,2.37,1l7.6,7.63a3.34,3.34,0,0,1,.6,3.94l-2.13,4.07-.26-.14a1.66,1.66,0,0,0-1.56,2.93l.28.15-2,3.74a3.34,3.34,0,0,1-3.57,1.75l-10.6-1.91a3.34,3.34,0,0,1-2.43-1.83,3.12,3.12,0,0,1-.28-.93,11.33,11.33,0,0,1-2.79-1l-.55-.29a6.69,6.69,0,0,0,5.46,7.34l10.6,1.91a7,7,0,0,0,1.2.11,6.66,6.66,0,0,0,5.9-3.58l2-3.72,21.45,11.43a5.68,5.68,0,0,0-.05.93,4.73,4.73,0,0,0,7.93,3.27l37.41,19.93a2,2,0,0,0,.22.09v5.51a4.43,4.43,0,0,0,4.42,4.42h12.48v21.79Zm109.87-33.14H472l2.28-4.8h3.19v-5.24H469V396.2h8.45V391H469v-4.15h8.45v-5.24H469v-4.15h8.45V372.2H469V192.25h18.64ZM419.9,192.25h20.17v180h-10v5.23h10v4.15h-10v5.24h10V391h-10v5.23h10v4.15h-10v5.24h4.73l2.28,4.8H419.9ZM443,400.35V396.2h23v4.15Zm0-9.38v-4.15h23V391Zm0-9.39v-4.15h23v4.15Zm0-9.38V192.25h23v180Zm5.26,33.39h12.53l2.28,4.8H446Zm50.95-224.48a6.08,6.08,0,1,1-6.08-6.07A6.07,6.07,0,0,1,499.21,181.11ZM414.37,175a6.07,6.07,0,1,1-6.07,6.07A6.07,6.07,0,0,1,414.37,175ZM380,186.14a3.49,3.49,0,0,1,6.1,3.41,3.46,3.46,0,0,1-2.14,1.66l-.18-2a1.66,1.66,0,0,0-3.31.29l.07.79A3.48,3.48,0,0,1,380,186.14Zm22,213.81L384.45,196.52a9.37,9.37,0,0,0,7.15-4.72l4.42-7.9,12.82,6.87V400Zm17.83,21.5h67.71v22.08H419.9Z"/><path d="M414.37,178.67a2.44,2.44,0,1,0,2.45,2.44A2.44,2.44,0,0,0,414.37,178.67Z"/><path d="M493.13,178.67a2.44,2.44,0,1,0,2.45,2.44A2.44,2.44,0,0,0,493.13,178.67Z"/><path d="M241.83,379.47c-.45-2.9-7.85-5.76-12.55-6.38a11.45,11.45,0,0,1-9.36-7.75l-10.8-4.08-18.59,22.52,31.66,12,1.16,46a13.82,13.82,0,0,0,13.81,13.47h.35A13.82,13.82,0,0,0,251,441.05l-1.33-52.47A11.32,11.32,0,0,1,241.83,379.47Z"/><path d="M164,368.55l-29.77,36.08L78.59,428.87a13.82,13.82,0,1,0,11,25.33l58.65-25.55a13.9,13.9,0,0,0,5.14-3.88l62.8-76.11,3.9-4.74.55-.5c.92-.84,1.83-1.67,2.74-2.48l-1.49,20.21a8.88,8.88,0,0,0,7.7,9.42c4.28.57,13.94,3.5,14.73,8.51a8.83,8.83,0,0,0,8.72,7.48,8,8,0,0,0,1.38-.11,8.83,8.83,0,0,0,7.37-10.1c-1.86-12-12.38-18.47-21.7-21.47l.9-12.2-24.63-13.14a11.39,11.39,0,1,1,10.73-20.09l15.72,8.39.07-.92c0-.31,0-.61,0-.9a16.26,16.26,0,0,0-.34-7.31,12.12,12.12,0,0,0-2.43-4.52c-6.35-7.37-20.48-11.09-34.37-1.08-9.59,7-16.81,13.23-23.13,20.48s-11.56,15.25-17.44,26C161.62,357.59,161.85,363.71,164,368.55Z"/><path d="M248.58,280.33a24.87,24.87,0,1,0,34.67-5.95A24.88,24.88,0,0,0,248.58,280.33Z"/><path d="M301.61,372.14a8.84,8.84,0,1,0,8.33-15.6l-84-44.85a8.85,8.85,0,1,0-8.33,15.61Z"/></g></svg>