<svg xmlns="http://www.w3.org/2000/svg" viewBox="0 0 600 600"><g id="Layer_1" data-name="Layer 1"><path d="M358.93,372.53l-3.56-21.45A16.71,16.71,0,0,0,349.64,341l1.41,31.51Z"/><path d="M232.56,392.76a14.11,14.11,0,0,1-13.44-14.71l.11-2.37H149.34V331.43a5.48,5.48,0,0,0-5.47-5.47h-1a5.48,5.48,0,0,0-5.28,4.13,5.49,5.49,0,0,0-5.29-4.13h-1a5.47,5.47,0,0,0-5.22,3.92,5.48,5.48,0,0,0-5.22-3.92h-1a5.48,5.48,0,0,0-5.47,5.47v29.48h-9.33v14.77H63.07v7.6h42.06v14.77h9.33v29.48a5.48,5.48,0,0,0,5.47,5.47h1a5.48,5.48,0,0,0,5.22-3.92,5.47,5.47,0,0,0,5.22,3.92h1a5.49,5.49,0,0,0,5.29-4.13,5.48,5.48,0,0,0,5.28,4.13h1a5.48,5.48,0,0,0,5.47-5.47V383.28h60.38l-5.07,30.6a16.75,16.75,0,0,0,13.79,19.26,16.23,16.23,0,0,0,2.76.23,16.76,16.76,0,0,0,16.51-14l5-30.29a14,14,0,0,1-9.52,3.71Z"/><path d="M220.78,341A16.77,16.77,0,0,0,215,351.08l-3.55,21.45h7.88Z"/><path d="M421.09,427.53a5.49,5.49,0,0,0,5.47,5.47h1a5.49,5.49,0,0,0,5.29-4.13,5.48,5.48,0,0,0,5.28,4.13h1a5.47,5.47,0,0,0,5.21-3.9,5.46,5.46,0,0,0,5.21,3.9h1a5.48,5.48,0,0,0,5.47-5.47V398.05h9.33V383.28h42.06v-7.6H465.29V360.91H456V331.43a5.48,5.48,0,0,0-5.47-5.47h-1a5.47,5.47,0,0,0-5.21,3.9,5.47,5.47,0,0,0-5.21-3.9h-1a5.48,5.48,0,0,0-5.28,4.13,5.49,5.49,0,0,0-5.29-4.13h-1a5.49,5.49,0,0,0-5.47,5.47v44.25h-69.9l.11,2.37a14.11,14.11,0,0,1-13.44,14.71h-.64a14,14,0,0,1-9.52-3.71l5,30.29a16.76,16.76,0,0,0,16.51,14,16.23,16.23,0,0,0,2.76-.23,16.75,16.75,0,0,0,13.79-19.26l-5.07-30.6h60.39Z"/><path d="M323.16,379.32l-.17-3.64H247.43l-.17,3.64a14,14,0,0,1-.75,4h77.4A14,14,0,0,1,323.16,379.32Z"/><path d="M225.63,303.06l-3.37,75.14a10.93,10.93,0,0,0,10.44,11.41l.5,0a10.94,10.94,0,0,0,10.92-10.45l3.34-74.46a90.71,90.71,0,0,1,9.29-26l3.15.76a89,89,0,0,0-9.31,25.55l-2.56,57,31.8-25.38a16.78,16.78,0,0,0,5.38-7.68,16.71,16.71,0,0,0,5.38,7.68l31.8,25.38-2.56-57a89,89,0,0,0-9.31-25.55l3.15-.76a91,91,0,0,1,9.29,26l3.34,74.46a10.94,10.94,0,0,0,10.92,10.45l.5,0a10.94,10.94,0,0,0,10.44-11.41l-3.37-75.14a11.4,11.4,0,0,0-.14-1.31,108,108,0,0,0-9.19-28.3,155.94,155.94,0,0,0-19-30.12,33.91,33.91,0,0,1-62.58,0,155.94,155.94,0,0,0-19,30.12,108,108,0,0,0-9.19,28.3A9.54,9.54,0,0,0,225.63,303.06Z"/><circle cx="285.21" cy="230.25" r="30.77"/></g></svg>