<svg xmlns="http://www.w3.org/2000/svg" viewBox="0 0 600 600"><g id="Layer_1" data-name="Layer 1"><path d="M190.76,461a13.48,13.48,0,0,1,13.47-13.46h40.45l4.73-19H215.62a16.46,16.46,0,0,1-2-.14c-.87,0-1.73.05-2.59.05h-.89c-5.36-.07-10-.39-13.07-3.63a10.67,10.67,0,0,1-.78-1h-5.87a7.84,7.84,0,0,0-7.82,7.82h0a7.84,7.84,0,0,0,7.82,7.82h2.11A24.55,24.55,0,0,0,179.71,461v29.62h11Z"/><path d="M267.41,254.13a3.25,3.25,0,0,0,1.71-.49,3.3,3.3,0,0,0,1.12-4.55l-3.46-5.72-2,9.45A3.32,3.32,0,0,0,267.41,254.13Z"/><path d="M334.29,150.26a2.45,2.45,0,1,0,2.44,2.44A2.45,2.45,0,0,0,334.29,150.26Z"/><path d="M413.05,150.26a2.45,2.45,0,1,0,2.44,2.44A2.45,2.45,0,0,0,413.05,150.26Z"/><path d="M196.43,409.19c-.92,15.43,3.6,16.52,13.73,16.64,1.17,0,2.36,0,3.56-.05a15,15,0,0,0,1.9.14h37l-12.49,50.3A13.82,13.82,0,1,0,267,482.89l16.76-67.46a13.8,13.8,0,0,0-12.36-17.09,16.93,16.93,0,0,1-29.84-.06h-4.8c1.12-13.89.47-24.75-2.29-36.74A170.85,170.85,0,0,0,229.67,345a35.59,35.59,0,0,0-2.43-5.54l-7.37,9.74a11.39,11.39,0,1,1-18.16-13.74l31.19-41.25,11.91-57a11.42,11.42,0,0,1,11.13-9.06,11.63,11.63,0,0,1,1.67.13l-.91-1.5a3.37,3.37,0,0,0-.86-.94l2.8-25.25a4.48,4.48,0,0,0,.93-.27,4.74,4.74,0,0,0,2.68-6.15,4.69,4.69,0,0,0-2.6-2.64l4.7-42.34a9.38,9.38,0,0,0,8.56-4.77l4.65-8.31,51.2,26.3V436.44H281.15L278.4,447.5h50.36v32H294.05v11.06h152.5V479.52h-28V163.84H430.5V141.73H337L263.51,104,253.4,123.66l7.51,3.85-4.33,7.74a9.38,9.38,0,0,0,3.6,12.73,8.44,8.44,0,0,0,.91.44l-4.77,43a1.8,1.8,0,0,0-.22.06,4.74,4.74,0,0,0-2.68,6.15,4.69,4.69,0,0,0,2,2.31l-2.83,25.52a3.58,3.58,0,0,0-.48.24l-4,2.59a8.83,8.83,0,0,0-9.91,6.39l-6.1,3.94a3.32,3.32,0,0,0,3.59,5.58l.67-.43-7.25,36.35a24.87,24.87,0,1,0-25.57,40.24l-7,7.87c-6.17,4.75-8.52,15.26-5.91,24.32,1.24,6.31,2.86,13.74,4.17,21.61C196.66,385.57,197.93,397.94,196.43,409.19Zm166.48,37.2h2.84l2.42-5.09H380.7l2.42,5.09H362.91Zm0-10.32v-4.15h23v4.15Zm0-9.39v-4.15h23v4.15Zm0-9.38v-4.15h23v4.15Zm0-9.39v-4.14h23v4.14Zm0-9.38v-4.15h23v4.15Zm0-9.39V163.84h23v225.3ZM360,163.84v225.3H350v5.24h10v4.15H350v5.24h10v4.14H350v5.24h10v4.15H350v5.23h10v4.15H350v5.24h10v4.15H350v5.23h4.72l2.42,5.09H339.81V163.84ZM339.81,479.52V457.44h67.71v22.08Zm67.71-33.13H391.73l2.42-5.09h3.19v-5.23h-8.45v-4.15h8.45v-5.24h-8.45v-4.15h8.45V417.3h-8.45v-4.15h8.45v-5.24h-8.45v-4.14h8.45v-5.24h-8.45v-4.15h8.45v-5.24h-8.45V163.84h18.63Zm11.6-293.69a6.08,6.08,0,1,1-6.07-6.07A6.08,6.08,0,0,1,419.12,152.7Zm-84.83-6.07a6.08,6.08,0,1,1-6.08,6.07A6.07,6.07,0,0,1,334.29,146.63Zm-72.93-7.91a3.49,3.49,0,1,1,3.57,5.14l.2-1.78a1.66,1.66,0,1,0-3.3-.37l-.1.94A3.47,3.47,0,0,1,261.36,138.72Z"/><path d="M264.61,241.3a8.85,8.85,0,0,0-17.32-3.61l-12,57.55-31.53,41.7a8.85,8.85,0,0,0,14.11,10.67l32.73-43.29a8.81,8.81,0,0,0,1.6-3.52Z"/><path d="M270.1,390.31a13.62,13.62,0,1,0-13.62,13.62A13.62,13.62,0,0,0,270.1,390.31Zm-19.62,0a6,6,0,1,1,6,6A6,6,0,0,1,250.48,390.31Z"/></g></svg>